<svg xmlns="http://www.w3.org/2000/svg" width="800" height="728" viewBox="0 0 800 728"><defs><style>.cls-1{fill:#d4d4dc;}</style></defs><title>RS_logo_presvg</title><g id="Layer_2" data-name="Layer 2"><path class="cls-1" d="M400,42A357.8521,357.8521,0,0,1,680.0741,623H119.9259A357.8724,357.8724,0,0,1,400,42m0-19C191.7886,23,23,191.7886,23,400a375.4744,375.4744,0,0,0,87.92,242H689.08A375.4744,375.4744,0,0,0,777,400C777,191.7886,608.2114,23,400,23Z"/></g><g id="Layer_3" data-name="Layer 3"><path class="cls-1" d="M462.5,544c10.5,46.5,41.5,74,99,74,64,0,88.5-32,88.5-70,0-39.5-17.5-64-94.5-83-74-18.5-106-42.5-106-93,0-46,33.5-89,108.5-89,77,0,109.5,47,114,89.5H644C636,335,611.5,308,556.5,308c-50.5,0-78,23.5-78,62.5,0,38.5,23,53.5,87.5,69.5,98.5,24.5,113,64,113,106,0,51.5-37.5,96-118.5,96-87.5,0-119.5-51-126-98Z"/><path class="cls-1" d="M177.5,474.5V638H150V288H275.5c69,0,105.5,37,105.5,92,0,44.5-26.5,73.5-65.5,82,36,8.5,60,32,60,91.5V567c0,24.5-2,57.5,4.5,71H352.5c-6.5-15-5-43-5-73v-9c0-57.5-17-81.5-84-81.5Zm0-25H262c61.5,0,90-23,90-69,0-43-28-67.5-82.5-67.5h-92Z"/><path class="cls-1" d="M185.36,669.7h3.96l6,15.12,6.06-15.12h4.02l-7.44,18.18,8.16,19.26L221.54,669.4h4.56L208.04,712h-3.72l-8.94-21.06-9,21.06h-3.66l-18-42.6h4.5L184.7,707.14l8.1-19.26Z"/><path class="cls-1" d="M240.92,712.6a15.0224,15.0224,0,0,1-6.27-1.29,15.3521,15.3521,0,0,1-4.95-3.54,16.4344,16.4344,0,0,1-3.27-5.1894,16.8789,16.8789,0,0,1-1.17-6.3,16.4978,16.4978,0,0,1,1.17-6.21,16.09,16.09,0,0,1,3.24-5.1006,15.3923,15.3923,0,0,1,4.95-3.48,15.8092,15.8092,0,0,1,12.51,0,14.9288,14.9288,0,0,1,4.89,3.51,16.4809,16.4809,0,0,1,4.32,11.22v.96a2.43,2.43,0,0,1-.06.66H229.52a13.1619,13.1619,0,0,0,1.17,4.65,12.76,12.76,0,0,0,2.55,3.69,11.4043,11.4043,0,0,0,3.57,2.4307,10.6772,10.6772,0,0,0,4.29.87,11.0835,11.0835,0,0,0,3-.4209,12.089,12.089,0,0,0,2.76-1.14,10.2613,10.2613,0,0,0,2.28-1.7695,7.61,7.61,0,0,0,1.56-2.3106l3.54.96a10.3872,10.3872,0,0,1-2.04,3.15,14.21,14.21,0,0,1-3.06,2.46,14.9884,14.9884,0,0,1-3.84,1.62A16.6553,16.6553,0,0,1,240.92,712.6Zm11.52-17.88a12.5431,12.5431,0,0,0-3.69-8.16,11.1726,11.1726,0,0,0-3.54-2.34,11.0267,11.0267,0,0,0-4.29-.84,11.2385,11.2385,0,0,0-4.32.84,11.08,11.08,0,0,0-3.57,2.34,11.5137,11.5137,0,0,0-2.46,3.6006,13.6179,13.6179,0,0,0-1.11,4.5595Z"/><path class="cls-1" d="M277.939,712.6a12.9487,12.9487,0,0,1-6.81-1.8594,13.6922,13.6922,0,0,1-4.83-4.8V712h-3.66V668.2h4.08v19.08a17.8562,17.8562,0,0,1,5.04-5.13,12.0854,12.0854,0,0,1,6.84-1.95,12.4537,12.4537,0,0,1,5.91,1.38,13.9145,13.9145,0,0,1,4.44,3.6894,17.33,17.33,0,0,1,2.82,5.2207,18.4092,18.4092,0,0,1,.99,5.97,17.1225,17.1225,0,0,1-1.14,6.24,16.409,16.409,0,0,1-3.12,5.13,14.783,14.783,0,0,1-4.71,3.48A13.5188,13.5188,0,0,1,277.939,712.6Zm-.96-3.6a10.5039,10.5039,0,0,0,4.71-1.05,11.502,11.502,0,0,0,3.66-2.82,13.5817,13.5817,0,0,0,2.4-4.0195,12.795,12.795,0,0,0,.87-4.65,14.06,14.06,0,0,0-.81-4.74,13.2123,13.2123,0,0,0-2.28-4.05,11.0819,11.0819,0,0,0-3.54-2.82,9.8807,9.8807,0,0,0-4.53-1.05,9.5186,9.5186,0,0,0-3.48.63,11.7608,11.7608,0,0,0-3,1.71,13.8517,13.8517,0,0,0-2.46,2.49,15.7389,15.7389,0,0,0-1.8,2.97V701.32a6.6376,6.6376,0,0,0,1.29,3.0293,10.733,10.733,0,0,0,2.52,2.4307,13.1917,13.1917,0,0,0,3.18,1.62A9.8579,9.8579,0,0,0,276.979,709Z"/><path class="cls-1" d="M315.7979,712V669.4h14.46a21.9451,21.9451,0,0,1,8.91,1.68,18.1311,18.1311,0,0,1,6.36,4.5595,19.2412,19.2412,0,0,1,3.84,6.75,25.9474,25.9474,0,0,1,1.29,8.25,25.39,25.39,0,0,1-1.44,8.79,19.0746,19.0746,0,0,1-4.11,6.7207,18.3737,18.3737,0,0,1-6.42,4.3193,22.13,22.13,0,0,1-8.43,1.53Zm30.66-21.36a21.9966,21.9966,0,0,0-1.08-7.05,15.93,15.93,0,0,0-3.15-5.55,14.1192,14.1192,0,0,0-5.07-3.63,17.3464,17.3464,0,0,0-6.9-1.29h-10.26v35.16h10.26a17.0216,17.0216,0,0,0,6.99-1.3506,14.2017,14.2017,0,0,0,5.07-3.72,16.1518,16.1518,0,0,0,3.09-5.58A22.388,22.388,0,0,0,346.458,690.64Z"/><path class="cls-1" d="M371.3574,712.6a15.0224,15.0224,0,0,1-6.27-1.29,15.3521,15.3521,0,0,1-4.95-3.54,16.4344,16.4344,0,0,1-3.27-5.1894,16.8789,16.8789,0,0,1-1.17-6.3,16.4978,16.4978,0,0,1,1.17-6.21,16.09,16.09,0,0,1,3.24-5.1006,15.3923,15.3923,0,0,1,4.95-3.48,15.8092,15.8092,0,0,1,12.51,0,14.9288,14.9288,0,0,1,4.89,3.51,16.4809,16.4809,0,0,1,4.32,11.22v.96a2.43,2.43,0,0,1-.06.66h-26.76a13.1619,13.1619,0,0,0,1.17,4.65,12.76,12.76,0,0,0,2.55,3.69,11.4043,11.4043,0,0,0,3.57,2.4307,10.6772,10.6772,0,0,0,4.29.87,11.0835,11.0835,0,0,0,3-.4209,12.089,12.089,0,0,0,2.76-1.14,10.2613,10.2613,0,0,0,2.28-1.7695,7.61,7.61,0,0,0,1.56-2.3106l3.54.96a10.3872,10.3872,0,0,1-2.04,3.15,14.21,14.21,0,0,1-3.06,2.46,14.9884,14.9884,0,0,1-3.84,1.62A16.6553,16.6553,0,0,1,371.3574,712.6Zm11.52-17.88a12.5431,12.5431,0,0,0-3.69-8.16,11.1726,11.1726,0,0,0-3.54-2.34,11.0267,11.0267,0,0,0-4.29-.84,11.2385,11.2385,0,0,0-4.32.84,11.08,11.08,0,0,0-3.57,2.34,11.5137,11.5137,0,0,0-2.46,3.6006,13.6179,13.6179,0,0,0-1.11,4.5595Z"/><path class="cls-1" d="M401.5977,712l-12.72-31.26h4.2l10.74,27.48,10.8-27.48h3.96L405.8574,712Z"/><path class="cls-1" d="M436.6377,712.6a15.0263,15.0263,0,0,1-6.27-1.29,15.3426,15.3426,0,0,1-4.9492-3.54,16.434,16.434,0,0,1-3.2705-5.1894,16.869,16.869,0,0,1-1.17-6.3,16.4881,16.4881,0,0,1,1.17-6.21,16.0885,16.0885,0,0,1,3.24-5.1006,15.3978,15.3978,0,0,1,4.95-3.48,15.2223,15.2223,0,0,1,17.4,3.51,16.4773,16.4773,0,0,1,4.3193,11.22v.96a2.4518,2.4518,0,0,1-.06.66h-26.76a13.1385,13.1385,0,0,0,1.17,4.65,12.7672,12.7672,0,0,0,2.5488,3.69,11.4269,11.4269,0,0,0,3.57,2.4307,10.6829,10.6829,0,0,0,4.2911.87,11.0917,11.0917,0,0,0,3-.4209,12.105,12.105,0,0,0,2.76-1.14,10.2335,10.2335,0,0,0,2.2793-1.7695,7.622,7.622,0,0,0,1.5606-2.3106l3.539.96a10.386,10.386,0,0,1-2.039,3.15,14.2285,14.2285,0,0,1-3.0606,2.46,14.97,14.97,0,0,1-3.84,1.62A16.6559,16.6559,0,0,1,436.6377,712.6Zm11.5205-17.88a12.6625,12.6625,0,0,0-1.17-4.59,12.505,12.505,0,0,0-2.52-3.57,11.1775,11.1775,0,0,0-3.54-2.34,11.0262,11.0262,0,0,0-4.29-.84,11.2356,11.2356,0,0,0-4.3193.84,11.0655,11.0655,0,0,0-3.57,2.34,11.5143,11.5143,0,0,0-2.4609,3.6006,13.632,13.632,0,0,0-1.1094,4.5595Z"/><path class="cls-1" d="M458.5371,668.2h4.08v36.72a3.7533,3.7533,0,0,0,.96,2.7305,3.5877,3.5877,0,0,0,2.7.9892,8.1066,8.1066,0,0,0,1.56-.18,10.3365,10.3365,0,0,0,1.6807-.48l.7187,3.3a13.3933,13.3933,0,0,1-2.789.7793,16.274,16.274,0,0,1-2.85.3008,6.0648,6.0648,0,0,1-4.4414-1.5909,5.9788,5.9788,0,0,1-1.6192-4.47Z"/><path class="cls-1" d="M487.9961,712.6a14.8219,14.8219,0,0,1-6.24-1.29,15.3061,15.3061,0,0,1-4.89-3.51,15.9082,15.9082,0,0,1-3.21-5.16,16.9419,16.9419,0,0,1-1.1407-6.18,16.7432,16.7432,0,0,1,1.17-6.24,16.4111,16.4111,0,0,1,3.24-5.16,15.7757,15.7757,0,0,1,4.8906-3.54,14.4052,14.4052,0,0,1,6.18-1.3193,14.6081,14.6081,0,0,1,6.21,1.3193,15.693,15.693,0,0,1,4.9209,3.54,16.39,16.39,0,0,1,3.2392,5.16,16.7213,16.7213,0,0,1,1.17,6.24,16.9411,16.9411,0,0,1-1.14,6.18,15.9126,15.9126,0,0,1-3.211,5.16,15.2093,15.2093,0,0,1-4.92,3.51A15.0217,15.0217,0,0,1,487.9961,712.6Zm-11.34-16.08a13.0378,13.0378,0,0,0,.9,4.8907,13.27,13.27,0,0,0,2.43,3.96,10.98,10.98,0,0,0,3.6,2.67,10.3467,10.3467,0,0,0,4.41.96,10.09,10.09,0,0,0,4.41-.99,11.7075,11.7075,0,0,0,3.63-2.7,12.843,12.843,0,0,0,2.46-3.9893,13.8116,13.8116,0,0,0,0-9.81,12.7774,12.7774,0,0,0-2.46-4.02,11.7075,11.7075,0,0,0-3.63-2.7,10.09,10.09,0,0,0-4.41-.99,9.8947,9.8947,0,0,0-4.38.99,11.6345,11.6345,0,0,0-3.6006,2.73,13.169,13.169,0,0,0-2.459,4.0508A13.5048,13.5048,0,0,0,476.6563,696.52Z"/><path class="cls-1" d="M526.3359,712.6a12.343,12.343,0,0,1-6.99-2.01,15.9837,15.9837,0,0,1-4.8906-5.07V724.78h-4.08V680.74h3.66v6.06a15.161,15.161,0,0,1,4.98-4.7695,12.7436,12.7436,0,0,1,6.66-1.83,13.0982,13.0982,0,0,1,5.9394,1.35,15.26,15.26,0,0,1,4.68,3.6006,16.72,16.72,0,0,1,3.09,5.1894,17.0245,17.0245,0,0,1,1.1113,6.0606,18.9005,18.9005,0,0,1-1.02,6.2392,15.9054,15.9054,0,0,1-2.91,5.16,13.9712,13.9712,0,0,1-4.5,3.51A12.7469,12.7469,0,0,1,526.3359,712.6Zm-1.1406-3.6a9.775,9.775,0,0,0,4.59-1.08,11.4269,11.4269,0,0,0,3.541-2.85,12.8469,12.8469,0,0,0,2.25-4.02,14.1338,14.1338,0,0,0,.7793-4.6494,12.95,12.95,0,0,0-.9-4.8008,13.2617,13.2617,0,0,0-2.459-4.0195,11.7124,11.7124,0,0,0-3.69-2.76,10.4986,10.4986,0,0,0-4.5909-1.02,9.4552,9.4552,0,0,0-3.2695.63,13.4249,13.4249,0,0,0-3.18,1.6807,11.31,11.31,0,0,0-2.5195,2.46,6.6169,6.6169,0,0,0-1.291,2.97v9.6a14.3255,14.3255,0,0,0,1.83,3.12,12.8876,12.8876,0,0,0,2.52,2.49,12.02,12.02,0,0,0,3.03,1.65A9.5852,9.5852,0,0,0,525.1953,709Z"/><path class="cls-1" d="M560.8945,712.6a15.0184,15.0184,0,0,1-6.2695-1.29,15.3616,15.3616,0,0,1-4.9512-3.54,16.4331,16.4331,0,0,1-3.2695-5.1894,16.8889,16.8889,0,0,1-1.17-6.3,16.5075,16.5075,0,0,1,1.17-6.21,16.09,16.09,0,0,1,3.24-5.1006,15.3869,15.3869,0,0,1,4.95-3.48,15.8092,15.8092,0,0,1,12.51,0,14.9163,14.9163,0,0,1,4.89,3.51,16.4851,16.4851,0,0,1,4.32,11.22v.96a2.403,2.403,0,0,1-.0606.66h-26.76a13.1813,13.1813,0,0,0,1.17,4.65,12.7511,12.7511,0,0,0,2.5507,3.69,11.3826,11.3826,0,0,0,3.57,2.4307,10.6725,10.6725,0,0,0,4.289.87,11.0753,11.0753,0,0,0,3-.4209,12.07,12.07,0,0,0,2.76-1.14,10.29,10.29,0,0,0,2.2812-1.7695,7.5952,7.5952,0,0,0,1.5586-2.3106l3.541.96a10.39,10.39,0,0,1-2.041,3.15,14.1921,14.1921,0,0,1-3.0586,2.46,15.0068,15.0068,0,0,1-3.8408,1.62A16.6553,16.6553,0,0,1,560.8945,712.6Zm11.52-17.88a12.5466,12.5466,0,0,0-3.6895-8.16,11.167,11.167,0,0,0-3.54-2.34,11.0263,11.0263,0,0,0-4.29-.84,11.241,11.241,0,0,0-4.32.84,11.0963,11.0963,0,0,0-3.57,2.34,11.5111,11.5111,0,0,0-2.459,3.6006,13.6063,13.6063,0,0,0-1.11,4.5595Z"/><path class="cls-1" d="M598.2148,684.34a12.8436,12.8436,0,0,0-7.2011,2.28,11.4984,11.4984,0,0,0-4.3194,5.94V712h-4.08V680.74h3.84v7.5a14.2068,14.2068,0,0,1,4.6807-5.6406,10.845,10.845,0,0,1,6.2988-2.04,4.2126,4.2126,0,0,1,.7812.06Z"/></g></svg>