<svg xmlns="http://www.w3.org/2000/svg" width="800" height="728" viewBox="0 0 800 728" fill="currentColor"><defs><style>.cls-1{fill:#d4d4dc;}</style></defs><title>RS_logo_new</title><g id="Layer_3" data-name="Layer 3"><path class="cls-1" d="M400,23C191.7886,23,23,191.7886,23,400a375.4744,375.4744,0,0,0,87.92,242H689.08A375.4744,375.4744,0,0,0,777,400C777,191.7886,608.2114,23,400,23ZM263.5,474.5c67,0,84,24,84,81.5v9c0,21.7975-.7889,42.5336,1.2714,58H177.5V474.5Zm-86-25V313h92c54.5,0,82.5,24.5,82.5,67.5,0,46-28.5,69-90,69ZM680.0741,623H637.2526C665.5106,605.2377,679,576.88,679,546c0-42-14.5-81.5-113-106-64.5-16-87.5-31-87.5-69.5,0-39,27.5-62.5,78-62.5,55,0,79.5,27,87.5,64.5h28C667.5,330,635,283,558,283c-75,0-108.5,43-108.5,89,0,50.5,32,74.5,106,93,77,19,94.5,43.5,94.5,83,0,38-24.5,70-88.5,70-57.5,0-88.5-27.5-99-74h-28c4.0356,29.1805,17.9069,59.8985,48.7811,79H376.3484c-1.8964-16.0268-.8484-38.2432-.8484-56V553.5c0-59.5-24-83-60-91.5,39-8.5,65.5-37.5,65.5-82,0-55-36.5-92-105.5-92H150V623H119.9259a358.2136,358.2136,0,1,1,560.1482,0Z"/><path class="cls-1" d="M203.8928,669.7h3.96l6,15.12,6.06-15.12h4.02l-7.44,18.18,8.16,19.26L240.073,669.4h4.56L226.573,712h-3.72l-8.94-21.06-9,21.06h-3.66l-18-42.6h4.5l15.48,37.7392,8.1-19.26Z"/><path class="cls-1" d="M259.4524,712.6a15.0224,15.0224,0,0,1-6.27-1.29,15.3521,15.3521,0,0,1-4.95-3.54,16.4327,16.4327,0,0,1-3.27-5.1894,16.879,16.879,0,0,1-1.17-6.3,16.4978,16.4978,0,0,1,1.17-6.21,16.0885,16.0885,0,0,1,3.24-5.1006,15.3923,15.3923,0,0,1,4.95-3.48,15.2209,15.2209,0,0,1,17.4,3.51,16.4809,16.4809,0,0,1,4.32,11.22v.96a2.43,2.43,0,0,1-.06.66h-26.76a13.1619,13.1619,0,0,0,1.17,4.65,12.76,12.76,0,0,0,2.55,3.69,11.4051,11.4051,0,0,0,3.57,2.4307,10.6781,10.6781,0,0,0,4.29.87,11.0835,11.0835,0,0,0,3-.4209,12.0864,12.0864,0,0,0,2.76-1.14,10.2619,10.2619,0,0,0,2.28-1.7695,7.61,7.61,0,0,0,1.56-2.3106l3.54.96a10.3891,10.3891,0,0,1-2.04,3.15,14.21,14.21,0,0,1-3.06,2.46,14.9884,14.9884,0,0,1-3.84,1.62A16.6559,16.6559,0,0,1,259.4524,712.6Zm11.52-17.88a12.5431,12.5431,0,0,0-3.69-8.16,11.1719,11.1719,0,0,0-3.54-2.34,11.0262,11.0262,0,0,0-4.29-.84,11.2381,11.2381,0,0,0-4.32.84,11.08,11.08,0,0,0-3.57,2.34,11.51,11.51,0,0,0-2.46,3.6006,13.618,13.618,0,0,0-1.11,4.5595Z"/><path class="cls-1" d="M296.4714,712.6a12.9483,12.9483,0,0,1-6.81-1.8594,13.6914,13.6914,0,0,1-4.83-4.8V712h-3.66V668.2h4.08v19.08a17.8558,17.8558,0,0,1,5.04-5.13,12.0858,12.0858,0,0,1,6.84-1.95,12.453,12.453,0,0,1,5.91,1.38,13.9138,13.9138,0,0,1,4.44,3.6894,17.3323,17.3323,0,0,1,2.82,5.2207,18.4091,18.4091,0,0,1,.99,5.97,17.1224,17.1224,0,0,1-1.14,6.24,16.409,16.409,0,0,1-3.12,5.13,14.7823,14.7823,0,0,1-4.71,3.48A13.5188,13.5188,0,0,1,296.4714,712.6Zm-.96-3.6a10.5032,10.5032,0,0,0,4.71-1.05,11.5013,11.5013,0,0,0,3.66-2.82,13.5817,13.5817,0,0,0,2.4-4.0195,12.795,12.795,0,0,0,.87-4.65,14.06,14.06,0,0,0-.81-4.74,13.2123,13.2123,0,0,0-2.28-4.05,11.0812,11.0812,0,0,0-3.54-2.82,9.88,9.88,0,0,0-4.53-1.05,9.5182,9.5182,0,0,0-3.48.63,11.7608,11.7608,0,0,0-3,1.71,13.8484,13.8484,0,0,0-2.46,2.49,15.7389,15.7389,0,0,0-1.8,2.97V701.32a6.6385,6.6385,0,0,0,1.29,3.0293,10.7354,10.7354,0,0,0,2.52,2.4307,13.1917,13.1917,0,0,0,3.18,1.62A9.8574,9.8574,0,0,0,295.5115,709Z"/><path class="cls-1" d="M334.33,712V669.4h14.46a21.9443,21.9443,0,0,1,8.91,1.68,18.1305,18.1305,0,0,1,6.36,4.5595,19.24,19.24,0,0,1,3.84,6.75,25.9446,25.9446,0,0,1,1.29,8.25,25.3881,25.3881,0,0,1-1.44,8.79,19.073,19.073,0,0,1-4.11,6.7207,18.3737,18.3737,0,0,1-6.42,4.3193,22.13,22.13,0,0,1-8.43,1.53Zm30.66-21.36a21.9966,21.9966,0,0,0-1.08-7.05,15.93,15.93,0,0,0-3.15-5.55,14.1192,14.1192,0,0,0-5.07-3.63,17.3464,17.3464,0,0,0-6.9-1.29h-10.26v35.16h10.26a17.0216,17.0216,0,0,0,6.99-1.3506,14.2013,14.2013,0,0,0,5.07-3.72,16.15,16.15,0,0,0,3.09-5.58A22.388,22.388,0,0,0,364.9905,690.64Z"/><path class="cls-1" d="M389.89,712.6a15.0224,15.0224,0,0,1-6.27-1.29,15.3521,15.3521,0,0,1-4.95-3.54,16.4347,16.4347,0,0,1-3.27-5.1894,16.8809,16.8809,0,0,1-1.17-6.3,16.5,16.5,0,0,1,1.17-6.21,16.09,16.09,0,0,1,3.24-5.1006,15.3923,15.3923,0,0,1,4.95-3.48,15.8089,15.8089,0,0,1,12.51,0,14.9292,14.9292,0,0,1,4.89,3.51,16.4809,16.4809,0,0,1,4.32,11.22v.96a2.425,2.425,0,0,1-.06.66h-26.76a13.16,13.16,0,0,0,1.17,4.65,12.76,12.76,0,0,0,2.55,3.69,11.4039,11.4039,0,0,0,3.57,2.4307,10.6781,10.6781,0,0,0,4.29.87,11.0835,11.0835,0,0,0,3-.4209,12.0864,12.0864,0,0,0,2.76-1.14,10.2619,10.2619,0,0,0,2.28-1.7695,7.61,7.61,0,0,0,1.56-2.3106l3.54.96a10.3891,10.3891,0,0,1-2.04,3.15,14.21,14.21,0,0,1-3.06,2.46,14.9884,14.9884,0,0,1-3.84,1.62A16.6559,16.6559,0,0,1,389.89,712.6Zm11.52-17.88a12.5431,12.5431,0,0,0-3.69-8.16,11.173,11.173,0,0,0-3.54-2.34,11.0262,11.0262,0,0,0-4.29-.84,11.2381,11.2381,0,0,0-4.32.84,11.0816,11.0816,0,0,0-3.57,2.34,11.5117,11.5117,0,0,0-2.46,3.6006,13.618,13.618,0,0,0-1.11,4.5595Z"/><path class="cls-1" d="M420.1306,712l-12.72-31.26h4.2l10.74,27.48,10.8-27.48h3.96L424.39,712Z"/><path class="cls-1" d="M455.17,712.6a15.0225,15.0225,0,0,1-6.27-1.29,15.3474,15.3474,0,0,1-4.95-3.54,16.4538,16.4538,0,0,1-3.2706-5.1894,16.8889,16.8889,0,0,1-1.17-6.3,16.5075,16.5075,0,0,1,1.17-6.21,16.1255,16.1255,0,0,1,3.24-5.1006,15.4017,15.4017,0,0,1,4.9511-3.48,15.22,15.22,0,0,1,17.4,3.51,16.4773,16.4773,0,0,1,4.3193,11.22v.96a2.41,2.41,0,0,1-.06.66H443.77a13.16,13.16,0,0,0,1.17,4.65,12.7486,12.7486,0,0,0,2.55,3.69,11.4039,11.4039,0,0,0,3.57,2.4307,10.6807,10.6807,0,0,0,4.29.87,11.0851,11.0851,0,0,0,3-.4209,12.0853,12.0853,0,0,0,2.76-1.14,10.2619,10.2619,0,0,0,2.28-1.7695,7.6185,7.6185,0,0,0,1.56-2.3106l3.54.96a10.391,10.391,0,0,1-2.04,3.15,14.2005,14.2005,0,0,1-3.06,2.46,14.9856,14.9856,0,0,1-3.84,1.62A16.6627,16.6627,0,0,1,455.17,712.6ZM466.69,694.72a12.6443,12.6443,0,0,0-1.17-4.59A12.505,12.505,0,0,0,463,686.56a11.1641,11.1641,0,0,0-3.5391-2.34,11.0347,11.0347,0,0,0-4.291-.84,11.24,11.24,0,0,0-4.3194.84,11.0866,11.0866,0,0,0-3.57,2.34,11.495,11.495,0,0,0-2.46,3.6006,13.5817,13.5817,0,0,0-1.1094,4.5595Z"/><path class="cls-1" d="M477.07,668.2h4.0791v36.72a3.7533,3.7533,0,0,0,.96,2.7305,3.5877,3.5877,0,0,0,2.7.9892,8.09,8.09,0,0,0,1.56-.18,10.3077,10.3077,0,0,0,1.6807-.48l.72,3.3a13.4051,13.4051,0,0,1-2.79.7793,16.2542,16.2542,0,0,1-2.85.3008,6.0627,6.0627,0,0,1-4.44-1.5909,5.9753,5.9753,0,0,1-1.6191-4.47Z"/><path class="cls-1" d="M506.5291,712.6a14.8161,14.8161,0,0,1-6.24-1.29,15.3219,15.3219,0,0,1-4.8906-3.51,15.9076,15.9076,0,0,1-3.209-5.16,16.9231,16.9231,0,0,1-1.1406-6.18,16.7412,16.7412,0,0,1,1.17-6.24,16.3769,16.3769,0,0,1,3.24-5.16,15.7656,15.7656,0,0,1,4.8907-3.54,14.4049,14.4049,0,0,1,6.18-1.3193,14.6061,14.6061,0,0,1,6.2089,1.3193,15.669,15.669,0,0,1,4.9209,3.54,16.3549,16.3549,0,0,1,3.2393,5.16,16.7034,16.7034,0,0,1,1.17,6.24,16.9613,16.9613,0,0,1-1.1387,6.18,15.9277,15.9277,0,0,1-3.2109,5.16,15.2308,15.2308,0,0,1-4.92,3.51A15.0253,15.0253,0,0,1,506.5291,712.6Zm-11.34-16.08a13.0355,13.0355,0,0,0,.8994,4.8907,13.27,13.27,0,0,0,2.4307,3.96,10.9674,10.9674,0,0,0,3.6,2.67,10.3435,10.3435,0,0,0,4.41.96,10.0955,10.0955,0,0,0,4.41-.99,11.7143,11.7143,0,0,0,3.6289-2.7,12.8306,12.8306,0,0,0,2.461-3.9893,13.8131,13.8131,0,0,0,0-9.81,12.7651,12.7651,0,0,0-2.461-4.02,11.7143,11.7143,0,0,0-3.6289-2.7,10.0955,10.0955,0,0,0-4.41-.99,9.8989,9.8989,0,0,0-4.3809.99,11.6294,11.6294,0,0,0-3.6,2.73,13.17,13.17,0,0,0-2.46,4.0508A13.5023,13.5023,0,0,0,495.1892,696.52Z"/><path class="cls-1" d="M544.8679,712.6a12.34,12.34,0,0,1-6.9892-2.01,15.9636,15.9636,0,0,1-4.8907-5.07V724.78h-4.08V680.74h3.66v6.06a15.1517,15.1517,0,0,1,4.9805-4.7695,12.74,12.74,0,0,1,6.6592-1.83,13.1055,13.1055,0,0,1,5.94,1.35,15.2834,15.2834,0,0,1,4.68,3.6006,16.7183,16.7183,0,0,1,3.09,5.1894,17.0214,17.0214,0,0,1,1.11,6.0606,18.9005,18.9005,0,0,1-1.02,6.2392,15.8871,15.8871,0,0,1-2.91,5.16,13.9733,13.9733,0,0,1-4.5,3.51A12.7469,12.7469,0,0,1,544.8679,712.6Zm-1.14-3.6a9.7772,9.7772,0,0,0,4.59-1.08,11.4338,11.4338,0,0,0,3.54-2.85,12.8113,12.8113,0,0,0,2.25-4.02,14.1347,14.1347,0,0,0,.78-4.6494,12.97,12.97,0,0,0-.9-4.8008,13.2463,13.2463,0,0,0-2.46-4.0195,11.69,11.69,0,0,0-3.6905-2.76,10.4938,10.4938,0,0,0-4.59-1.02,9.4466,9.4466,0,0,0-3.2695.63,13.3845,13.3845,0,0,0-3.18,1.6807,11.2909,11.2909,0,0,0-2.52,2.46,6.6162,6.6162,0,0,0-1.29,2.97v9.6a14.3336,14.3336,0,0,0,1.83,3.12,12.9131,12.9131,0,0,0,2.5195,2.49,12.0375,12.0375,0,0,0,3.03,1.65A9.5862,9.5862,0,0,0,543.7283,709Z"/><path class="cls-1" d="M579.4275,712.6a15.0184,15.0184,0,0,1-6.2695-1.29,15.3616,15.3616,0,0,1-4.9512-3.54,16.4313,16.4313,0,0,1-3.2695-5.1894,16.8889,16.8889,0,0,1-1.17-6.3,16.5076,16.5076,0,0,1,1.17-6.21,16.0885,16.0885,0,0,1,3.24-5.1006,15.3869,15.3869,0,0,1,4.95-3.48,15.8092,15.8092,0,0,1,12.51,0,14.9174,14.9174,0,0,1,4.89,3.51,16.4844,16.4844,0,0,1,4.32,11.22v.96a2.4041,2.4041,0,0,1-.0605.66h-26.76a13.1833,13.1833,0,0,0,1.17,4.65,12.7533,12.7533,0,0,0,2.5508,3.69,11.3822,11.3822,0,0,0,3.57,2.4307,10.6733,10.6733,0,0,0,4.2891.87,11.0753,11.0753,0,0,0,3-.4209,12.0677,12.0677,0,0,0,2.76-1.14,10.288,10.288,0,0,0,2.2813-1.7695,7.597,7.597,0,0,0,1.5586-2.3106l3.541.96a10.3922,10.3922,0,0,1-2.041,3.15,14.1921,14.1921,0,0,1-3.0586,2.46,15.0068,15.0068,0,0,1-3.8408,1.62A16.6559,16.6559,0,0,1,579.4275,712.6Zm11.5195-17.88a12.5459,12.5459,0,0,0-3.6894-8.16,11.1674,11.1674,0,0,0-3.54-2.34,11.0262,11.0262,0,0,0-4.29-.84,11.241,11.241,0,0,0-4.32.84,11.0963,11.0963,0,0,0-3.57,2.34,11.5078,11.5078,0,0,0-2.459,3.6006,13.6064,13.6064,0,0,0-1.11,4.5595Z"/><path class="cls-1" d="M616.7468,684.34a12.8384,12.8384,0,0,0-7.2,2.28,11.495,11.495,0,0,0-4.32,5.94V712h-4.08V680.74h3.84v7.5a14.223,14.223,0,0,1,4.6806-5.6406,10.85,10.85,0,0,1,6.3-2.04,4.1939,4.1939,0,0,1,.78.06Z"/></g></svg>